<svg width="608" height="102" xmlns="http://www.w3.org/2000/svg" xmlns:xlink="http://www.w3.org/1999/xlink" xml:space="preserve" overflow="hidden"><defs><clipPath id="clip0"><rect x="0" y="0" width="608" height="102"/></clipPath></defs><g clip-path="url(#clip0)"><path d="M217.771 51.5974 280.012 51.5974 312.77 99.0974 345.529 51.5974 610.877 51.5974 610.877 9.01309 348.803 9.01309 332.425 31.9444 348.803 9.01309 610.877 9.01309 610.877 0.823113 626.908 0.823113 626.908 0.819864 345.529 0.819864 312.77 45.046 280.012 0.819864 217.771 0.819864 217.771 51.5974" fill="#ED1C24" transform="matrix(1 0 0 -1.02191 0.346581 102)"/><path d="M610.877 9.01309 348.803 9.01309 332.425 31.9444" stroke="#FFFFFF" stroke-width="1.02328" stroke-miterlimit="10" fill="none" transform="matrix(1 0 0 -1.02191 0.346581 102)"/><path d="M610.877 0.823113 626.908 0.823113 626.908 66.3387 610.877 66.3387 610.877 0.823113" fill="#231F20" transform="matrix(1 0 0 -1.02191 0.346581 102)"/><path d="M74.0845 49.9477 74.0845 44.6365 59.6193 44.6365 59.6193 49.9477ZM74.0845 39.7229 74.0845 8.19215 74.0823 8.19215 74.0823 39.7229ZM35.2846 8.19215 35.2846 8.19215 35.2846 39.7229ZM35.2846 44.6365 35.2846 49.9477 49.7475 49.9477 49.7475 44.6365ZM49.7475 9.92502 59.6193 9.92502 59.6193 8.0416 49.7475 8.0416 49.7475 9.92502" fill="#ED1C24" transform="matrix(1 0 0 -1.02191 0.346581 102)"/><path d="M74.0823 39.7229 74.0823 6.66722 63.4544 0.820948 46.5665 0.820948 35.2846 6.66722 35.2846 39.7229 49.7475 39.7229 49.7475 8.0416 59.6193 8.0416 59.6193 39.7229 74.0823 39.7229" fill="#231F20" transform="matrix(1 0 0 -1.02191 0.346581 102)"/><path d="M74.0823 39.7229 74.0823 6.66722 63.4544 0.820948 46.5665 0.820948 35.2846 6.66722 35.2846 39.7229 49.7475 39.7229 49.7475 8.0416 59.6193 8.0416 59.6193 39.7229Z" stroke="#231F20" stroke-width="0.078603" stroke-miterlimit="10" fill="none" transform="matrix(1 0 0 -1.02191 0.346581 102)"/><path d="M16.5327 49.9477 16.5327 44.6365 2.06861 44.6365 2.06861 49.9477ZM16.5327 39.7229 16.5327 10.2564 32.3387 10.2564 32.3387 0.822029 2.06861 0.822029 2.06861 39.7229 16.5327 39.7229" fill="#231F20" transform="matrix(1 0 0 -1.02191 0.346581 102)"/><path d="M118.072 39.7229 118.072 31.3378 104.107 31.3378 104.107 39.7229ZM94.046 39.7229 94.046 9.92502 104.107 9.92502 104.107 21.8038 118.072 21.8038 118.072 8.19215 107.529 0.822029 90.7613 0.822029 80.0802 8.19215 80.0802 39.7229ZM83.063 44.6365 90.7613 49.9477 106.979 49.9477 114.974 44.6365ZM137.019 49.9477 137.019 44.6365 123.054 44.6365 123.054 49.9477ZM137.019 39.7229 137.019 27.492 143.164 39.7229 157.419 39.7229 149.97 27.0252 165.139 0.822029 149.317 0.822029 137.019 22.5912 137.019 0.822029 123.054 0.822029 123.054 39.7229ZM145.633 44.6365 148.302 49.9477 163.419 49.9477 160.302 44.6365ZM196.418 49.9477 196.418 44.6365 166.853 44.6365 166.853 49.9477ZM180.818 39.7229 180.818 31.3378 194.009 31.3378 194.009 22.2338 180.818 22.2338 180.818 9.92502 196.418 9.92502 196.418 0.822029 166.853 0.822029 166.853 39.7229 180.818 39.7229" fill="#231F20" transform="matrix(1 0 0 -1.02191 0.346581 102)"/><path d="M404.263 33.7119 404.263 29.8281 400.72 29.8281 400.72 13.9258 395.308 13.9258 395.308 29.8281 391.653 29.8281 391.653 33.7119ZM419.837 30.7444 419.837 25.7115 416.884 23.7566 420.048 21.6695 420.048 13.9258 414.794 13.9258 414.794 21.8277 411.026 21.8277 411.026 13.9258 405.802 13.9258 405.802 33.7119 415.831 33.7119ZM414.794 30.0457 411.026 30.0457 411.026 25.5241 414.794 25.5241ZM436.503 30.7444 436.503 16.8944 432.657 13.9258 426.336 13.9258 422.224 16.8944 422.224 30.7444 426.336 33.7119 432.472 33.7119ZM431.282 30.0457 427.633 30.0457 427.633 17.5919 431.282 17.5919ZM453.177 30.7444 453.177 26.2162 447.954 26.2162 447.954 30.0457 444.191 30.0457 444.191 17.5919 447.954 17.5919 447.954 22.3768 453.177 22.3768 453.177 16.8944 449.235 13.9258 442.963 13.9258 438.971 16.8944 438.971 30.7444 442.963 33.7119 449.03 33.7119ZM460.705 33.7119 460.705 24.6674 464.925 33.7119 470.578 33.7119 465.549 24.48 471.224 13.9258 465.305 13.9258 460.705 22.6941 460.705 13.9258 455.481 13.9258 455.481 33.7119ZM483.362 33.7119 483.362 30.0457 477.529 30.0457 477.529 26.2162 482.461 26.2162 482.461 22.55 477.529 22.55 477.529 17.5919 483.362 17.5919 483.362 13.9258 472.305 13.9258 472.305 33.7119ZM500.095 33.7119 500.095 13.9258 495.29 13.9258 490.69 25.2317 490.618 13.9258 485.436 13.9258 485.436 33.7119 490.807 33.7119 495.027 23.1143 495.085 33.7119ZM517.97 13.9258 512.563 13.9258 511.956 17.5919 507.531 17.5919 506.985 13.9258 501.556 13.9258 505.455 33.7119 513.764 33.7119ZM511.391 21.3327 509.963 30.061 509.222 30.061 508.041 21.3327ZM533.513 33.7119 533.513 16.8944 529.537 13.9258 523.221 13.9258 519.001 16.8944 519.001 33.7119 524.411 33.7119 524.411 17.5919 528.104 17.5919 528.104 33.7119ZM549.539 30.7444 549.539 27.3793 544.373 27.3793 544.373 30.0457 540.816 30.0457 540.816 25.9291 545.69 25.6378 549.705 22.7233 549.705 16.8944 545.69 13.9258 539.477 13.9258 535.462 16.8944 535.462 20.215 540.816 20.215 540.816 17.5919 544.482 17.5919 544.482 21.8233 539.574 22.0854 535.593 25.0432 535.593 30.7444 539.574 33.7119 545.477 33.7119ZM565.697 31.2632 565.697 25.9985 562.872 24.0598 566.155 22.1147 566.155 16.8944 562.132 13.9258 551.906 13.9258 551.906 33.7119 562.132 33.7119ZM560.931 30.0457 557.13 30.0457 557.13 25.7959 560.931 25.7959ZM560.931 22.1147 557.13 22.1147 557.13 17.5919 560.931 17.5919ZM583.63 13.9258 578.221 13.9258 577.617 17.5919 573.192 17.5919 572.645 13.9258 567.217 13.9258 571.115 33.7119 579.424 33.7119ZM577.051 21.3327 575.623 30.061 574.883 30.061 573.699 21.3327ZM599.174 33.7119 599.174 16.8944 595.198 13.9258 588.882 13.9258 584.662 16.8944 584.662 33.7119 590.071 33.7119 590.071 17.5919 593.764 17.5919 593.764 33.7119 599.174 33.7119" fill="#FFFFFF" transform="matrix(1 0 0 -1.02191 0.346581 102)"/></g></svg>